<?xml version="1.0" standalone="no"?>
<!DOCTYPE svg PUBLIC "-//W3C//DTD SVG 20010904//EN"
 "http://www.w3.org/TR/2001/REC-SVG-20010904/DTD/svg10.dtd">
<svg version="1.0" xmlns="http://www.w3.org/2000/svg"
 width="5939.000000pt" height="5903.000000pt" viewBox="0 0 5939.000000 5903.000000"
 preserveAspectRatio="xMidYMid meet">

<g transform="translate(0.000000,5903.000000) scale(0.100000,-0.100000)"
fill="#000000" stroke="none">
<path d="M25115 54205 c-588 -151 -1086 -281 -1105 -290 -102 -47 -168 -127
-195 -232 -14 -53 -14 -81 -5 -185 17 -191 39 -310 60 -323 5 -3 71 10 147 29
265 67 1693 402 2788 656 264 61 488 114 499 118 13 6 -127 72 -530 252 -302
134 -558 245 -569 246 -11 2 -501 -120 -1090 -271z"/>
<path d="M22253 53582 c-108 -39 -178 -112 -209 -220 -23 -80 -16 -373 10
-422 38 -71 86 -119 153 -152 60 -29 75 -32 152 -32 102 1 157 22 224 83 86
79 111 176 105 395 -4 150 -21 199 -91 269 -84 84 -233 119 -344 79z"/>
<path d="M21155 53521 c-89 -23 -167 -87 -213 -174 -27 -52 -27 -54 -27 -247
0 -172 2 -199 19 -230 77 -145 231 -215 384 -176 108 27 172 81 221 186 24 53
25 63 26 235 0 176 -1 181 -27 231 -40 76 -70 107 -138 143 -51 27 -75 34
-138 37 -42 2 -90 0 -107 -5z"/>
<path d="M19873 53240 c-72 -36 -116 -82 -152 -160 -25 -53 -26 -62 -26 -235
0 -163 2 -184 21 -226 52 -111 152 -179 278 -187 145 -9 254 50 316 172 l35
69 0 186 c0 173 -2 189 -23 232 -28 58 -78 110 -140 146 -41 24 -59 28 -147
31 -95 3 -103 2 -162 -28z"/>
<path d="M18683 53094 c-82 -30 -175 -136 -196 -224 -4 -14 -7 -100 -8 -191
-2 -158 -1 -168 23 -220 31 -67 83 -121 151 -157 47 -24 62 -27 152 -27 113 0
157 16 228 84 73 69 89 116 99 291 9 166 3 221 -32 290 -30 59 -73 103 -132
135 -46 26 -65 30 -148 32 -67 2 -108 -2 -137 -13z"/>
<path d="M17563 53024 c-58 -21 -139 -96 -170 -158 -24 -46 -27 -66 -34 -206
-4 -85 -3 -176 2 -202 17 -96 79 -176 172 -226 47 -24 62 -27 152 -27 85 0
106 3 143 23 64 34 120 89 149 146 23 45 27 69 35 206 9 166 2 222 -32 290
-30 59 -73 103 -132 135 -46 26 -65 30 -148 32 -67 2 -108 -2 -137 -13z"/>
<path d="M38182 52880 c-531 -41 -1068 -250 -1576 -613 -313 -224 -529 -470
-676 -772 -146 -298 -198 -564 -187 -955 12 -453 147 -928 417 -1467 l106
-212 -41 -5 c-22 -3 -722 -39 -1555 -81 -1622 -80 -1648 -82 -1796 -141 -202
-81 -393 -274 -468 -471 -49 -131 -56 -182 -73 -558 -9 -198 -17 -361 -18
-363 -1 -1 -522 -11 -1156 -22 -1433 -23 -1485 -25 -1587 -45 -267 -52 -489
-171 -683 -365 l-105 -106 -2145 -37 c-2250 -39 -2228 -38 -2474 -88 -431 -86
-862 -288 -1215 -569 -128 -102 -328 -301 -433 -432 -338 -420 -550 -928 -612
-1464 -9 -77 -31 -607 -55 -1324 -22 -657 -42 -1256 -45 -1330 -5 -121 -25
-749 -40 -1205 -3 -93 -62 -1826 -130 -3849 -69 -2023 -123 -3681 -121 -3684
15 -14 383 -73 621 -99 289 -31 1197 -19 1254 16 8 5 63 1441 186 4827 267
7349 272 7480 289 7555 80 363 405 646 774 675 42 3 241 -4 442 -15 918 -52
1990 -90 3051 -107 l417 -7 12 -41 c20 -71 97 -223 150 -300 102 -148 278
-295 445 -372 145 -67 238 -86 450 -91 166 -4 4870 73 15000 246 2751 47 2853
50 2926 69 293 78 502 323 534 627 11 98 -51 977 -75 1070 -11 43 -19 79 -18
80 2 1 185 26 408 54 456 59 898 118 980 131 36 6 -44 8 -235 5 -159 -3 -504
-8 -765 -11 l-475 -6 -30 49 c-102 164 -327 325 -531 378 -127 33 -197 33
-1774 6 -861 -15 -1567 -25 -1570 -23 -3 2 -8 193 -12 425 -3 232 -9 463 -12
512 -22 384 -289 706 -664 801 -71 18 -122 24 -203 24 -106 0 -2220 -105
-2309 -115 -25 -2 -121 -7 -215 -11 -93 -3 -316 -14 -495 -23 -179 -10 -327
-16 -329 -14 -2 1 13 231 33 510 35 479 43 586 66 878 5 66 14 183 19 260 6
77 24 320 41 540 32 409 32 466 4 622 -65 363 -311 694 -638 857 -265 132
-709 204 -1084 176z m194 -360 c397 -53 649 -160 865 -367 241 -232 379 -551
379 -877 0 -55 -7 -188 -15 -295 -13 -160 -19 -201 -36 -227 -21 -35 -90 -74
-130 -74 -41 1 -108 37 -130 72 -20 32 -20 40 -12 193 15 292 10 470 -14 555
-46 161 -113 277 -228 399 -153 162 -319 243 -600 295 -255 48 -506 46 -775
-4 -111 -21 -143 -18 -193 15 -79 51 -74 197 8 251 40 26 230 60 435 78 73 6
360 -3 446 -14z m-201 -1025 c33 -8 101 -35 150 -59 376 -186 533 -634 355
-1015 -127 -270 -394 -440 -693 -441 -304 0 -583 178 -707 454 -160 355 -27
774 310 976 73 44 153 75 250 95 80 18 249 13 335 -10z m1316 -968 c19 -12 43
-39 53 -58 19 -35 19 -39 -1 -307 -20 -267 -20 -272 -48 -308 -15 -20 -44 -43
-63 -51 -71 -30 -165 6 -198 75 -16 35 -16 48 0 292 20 284 30 324 88 360 47
28 124 27 169 -3z m3442 -1680 c309 -94 537 -328 618 -632 18 -69 22 -126 31
-428 5 -192 7 -352 3 -355 -4 -4 -73 -9 -154 -10 l-148 -4 -7 319 c-8 348 -15
400 -68 512 -42 90 -168 215 -258 259 -140 68 -101 66 -1036 51 -832 -12 -841
-12 -875 7 -106 62 -106 206 0 268 33 19 63 21 675 32 353 6 751 11 886 10
233 -3 249 -4 333 -29z m-2186 -89 c29 -32 37 -65 22 -99 -22 -55 -44 -59
-307 -59 -225 0 -239 1 -260 20 -29 28 -37 64 -21 101 21 53 48 58 310 59 232
0 236 0 256 -22z"/>
<path d="M16364 52776 c-60 -19 -129 -70 -162 -119 -54 -79 -57 -97 -57 -302
0 -215 6 -236 86 -316 65 -65 127 -89 235 -89 81 0 97 3 152 30 71 36 115 83
150 160 24 52 26 64 26 235 1 172 0 182 -24 230 -32 64 -92 124 -155 154 -61
30 -188 38 -251 17z"/>
<path d="M15153 52616 c-140 -46 -210 -142 -225 -309 -16 -165 -7 -273 25
-340 35 -71 111 -140 180 -163 73 -25 188 -24 249 3 62 28 134 96 166 158 25
48 27 58 30 232 4 180 4 182 -23 242 -32 70 -94 133 -163 164 -59 26 -180 33
-239 13z"/>
<path d="M13843 52456 c-91 -30 -157 -89 -197 -176 -24 -52 -26 -68 -28 -235
-3 -179 -3 -180 25 -237 33 -67 90 -121 164 -155 49 -23 64 -25 151 -21 67 3
107 10 131 22 53 28 121 96 149 151 27 49 27 53 27 250 0 225 -1 229 -78 312
-61 67 -124 95 -222 99 -51 3 -95 -1 -122 -10z"/>
<path d="M12730 52297 c-94 -26 -163 -87 -207 -182 -27 -59 -28 -64 -28 -240
0 -177 0 -181 27 -232 37 -70 89 -120 157 -152 46 -21 70 -26 141 -26 71 0 95
5 141 26 71 33 124 87 158 158 25 54 26 62 26 246 l0 190 -29 53 c-36 65 -83
107 -153 139 -64 29 -169 38 -233 20z"/>
<path d="M11480 52033 c-29 -11 -66 -38 -106 -77 -84 -85 -94 -117 -97 -333
l-2 -170 35 -69 c60 -117 159 -174 304 -174 119 0 228 66 280 170 33 65 35 79
37 261 2 159 1 167 -24 222 -34 74 -102 140 -173 166 -67 26 -187 27 -254 4z"/>
<path d="M10335 51980 c-75 -11 -140 -46 -190 -104 -70 -79 -80 -121 -80 -326
0 -158 2 -179 22 -222 86 -186 335 -247 504 -122 101 74 129 154 129 370 0
183 -15 236 -86 309 -76 79 -178 111 -299 95z"/>
<path d="M52949 46951 c42 -71 80 -173 101 -269 20 -97 26 -296 35 -1347 3
-313 7 -734 10 -935 3 -201 7 -601 10 -890 5 -535 11 -1082 20 -1860 5 -408 8
-707 20 -1815 3 -247 7 -675 10 -950 3 -275 7 -669 10 -875 3 -206 7 -618 10
-915 3 -297 7 -718 10 -935 3 -217 7 -618 10 -890 7 -677 14 -1321 20 -1840 3
-239 7 -658 10 -930 3 -272 7 -679 10 -905 3 -225 7 -630 10 -900 3 -269 10
-888 15 -1375 5 -487 12 -1117 15 -1400 3 -283 7 -690 10 -905 3 -214 7 -637
11 -940 3 -302 9 -867 14 -1255 4 -388 9 -867 10 -1065 1 -198 3 -378 5 -400
1 -22 5 -411 9 -865 3 -454 8 -886 11 -960 3 -74 7 -461 10 -860 3 -399 8
-871 10 -1050 3 -179 7 -554 10 -835 6 -565 12 -1178 20 -1830 3 -236 7 -659
10 -940 3 -280 7 -679 10 -885 3 -206 7 -627 10 -935 3 -308 7 -715 10 -905 3
-190 7 -601 10 -915 3 -313 7 -750 10 -970 6 -524 14 -1206 20 -1795 3 -261 7
-671 10 -910 7 -600 14 -1245 20 -1820 12 -1081 15 -1386 21 -1855 7 -537 3
-591 -46 -728 -87 -238 -295 -429 -536 -491 -140 -36 -1188 -140 -1834 -181
-47 -3 -112 -8 -145 -10 -33 -2 -100 -7 -150 -10 -49 -3 -121 -8 -160 -10
-132 -9 -600 -34 -725 -40 -69 -3 -163 -7 -210 -10 -97 -6 -454 -22 -670 -30
-80 -3 -199 -8 -265 -10 -656 -28 -1914 -58 -3190 -76 -964 -14 -3705 -17
-5102 -6 -868 7 -1044 7 -1047 -5 -2 -7 -17 -70 -34 -139 -81 -338 -261 -683
-498 -959 -101 -116 -241 -248 -353 -333 l-63 -47 869 0 c477 0 3992 -5 7811
-11 5131 -8 6972 -7 7055 1 474 47 909 257 1237 596 260 269 432 589 514 956
47 210 50 287 37 1015 -6 367 -90 5357 -186 11088 -96 5731 -176 10557 -179
10725 -3 168 -8 501 -11 740 -3 239 -7 494 -10 565 -3 72 -7 355 -10 630 -4
275 -8 525 -10 555 -2 30 -7 309 -11 620 -3 311 -8 574 -10 584 -2 10 -4 125
-5 255 0 130 -5 448 -9 706 -5 259 -14 758 -19 1110 -6 352 -13 766 -16 920
-3 154 -10 552 -15 885 -5 333 -12 736 -15 895 -13 743 -16 920 -25 1500 -5
341 -12 715 -15 830 -6 223 -90 5292 -100 5970 -14 1048 -20 1160 -81 1449
-195 931 -775 1714 -1609 2175 -197 109 -463 217 -672 274 l-91 25 27 -47z
m1961 -34266 l25 -25 7 -455 c9 -508 9 -503 -55 -524 -40 -13 -72 -4 -102 29
-19 21 -20 42 -28 474 -5 332 -4 458 4 479 25 59 100 70 149 22z m37 -2499
c27 -23 28 -28 31 -128 6 -233 82 -4914 84 -5168 1 -177 -2 -309 -11 -370 -99
-738 -544 -1363 -1206 -1690 -212 -106 -455 -179 -690 -209 -44 -6 -831 -33
-1750 -60 -918 -28 -1742 -53 -1831 -56 l-160 -7 -32 27 c-41 34 -44 89 -8
132 l24 27 1748 52 c962 28 1799 54 1859 57 876 46 1635 693 1829 1558 54 239
53 136 8 2910 -24 1405 -44 2632 -45 2727 l-2 174 28 24 c37 32 87 32 124 0z"/>
<path d="M11175 43724 c-770 -97 -1516 -632 -1855 -1329 -253 -519 -284 -1046
-95 -1595 67 -195 261 -552 370 -681 l22 -27 31 19 30 20 22 -68 c74 -225 260
-500 478 -703 106 -100 286 -237 405 -309 254 -153 626 -287 815 -294 48 -2
56 1 79 27 20 23 24 37 20 65 -4 28 -163 507 -172 518 -1 2 -40 10 -87 18
-255 44 -474 178 -546 332 -21 45 -27 76 -30 143 -3 77 -1 90 25 140 40 78 74
95 188 94 105 0 213 -33 366 -109 l92 -47 40 18 c49 22 72 68 57 110 -6 15
-35 66 -65 114 -102 166 -222 427 -240 522 -4 21 -13 42 -21 49 -26 21 -17 65
21 98 94 82 314 154 740 241 l200 41 620 19 c341 11 755 23 920 28 330 10 345
13 401 73 17 19 43 57 59 84 82 145 212 310 346 441 193 186 389 310 664 421
60 24 113 49 117 56 14 22 8 64 -11 81 -17 16 -127 25 -873 76 -469 33 -854
59 -855 59 -1 1 -25 40 -54 89 -397 663 -964 1069 -1630 1166 -132 20 -439 19
-594 0z"/>
<path d="M13320 36599 c-283 -7 -711 -28 -722 -35 -3 -2 -20 -34 -37 -70 -38
-82 -128 -172 -231 -233 -737 -434 -1474 -514 -2188 -237 -159 61 -248 112
-267 153 -9 19 -15 43 -12 54 7 25 -3 25 -213 -10 -861 -145 -2240 -429 -2240
-462 0 -5 -11 -4 -23 2 -21 9 -35 3 -118 -57 -663 -478 -1445 -1186 -2003
-1814 -892 -1004 -1477 -2024 -1719 -2996 -25 -98 -47 -195 -51 -215 l-6 -35
182 -17 c467 -43 1037 -151 1478 -278 389 -113 842 -285 1134 -431 54 -27 100
-47 103 -44 3 2 14 43 24 91 50 224 161 481 271 630 47 64 246 271 252 263 2
-1 -1 -97 -5 -213 -5 -115 -12 -651 -15 -1191 l-7 -981 59 -45 c364 -280 811
-402 1409 -385 225 7 394 23 625 63 694 119 1537 412 2341 814 163 82 180 93
176 113 -15 62 -29 326 -24 465 4 131 9 172 32 247 91 306 203 507 352 630
122 100 264 158 429 173 l76 7 430 1500 c355 1240 434 1506 457 1535 55 70 71
74 576 130 253 27 679 72 946 99 268 27 491 51 497 55 5 3 12 24 16 47 4 23
14 55 24 71 32 55 71 64 412 97 173 18 331 34 351 37 l35 5 33 147 c47 208 58
239 87 259 18 11 268 57 788 144 829 138 799 135 840 78 26 -37 20 -73 -45
-267 -34 -101 -58 -186 -55 -189 5 -5 509 41 581 52 11 2 24 4 30 4 9 1 -9 19
-126 126 -1021 940 -2446 1746 -3594 2034 -351 88 -581 101 -1345 80z"/>
<path d="M18566 34138 c-3 -17 -4 -33 -2 -35 2 -2 20 -3 41 -1 l36 3 -27 33
c-15 17 -30 32 -34 32 -4 0 -10 -14 -14 -32z"/>
<path d="M23155 30369 c-465 -167 -1024 -306 -1523 -378 -112 -16 -206 -32
-210 -36 -4 -4 -15 -223 -24 -488 -9 -265 -35 -1007 -57 -1650 -23 -642 -41
-1183 -41 -1203 l0 -36 70 71 c179 180 419 312 655 360 96 20 427 50 938 87
151 11 237 21 237 28 0 6 27 751 60 1655 33 905 59 1645 57 1646 -1 1 -74 -24
-162 -56z"/>
<path d="M11385 27681 c-857 -504 -1762 -914 -2574 -1165 -594 -184 -1134
-287 -1654 -315 -93 -5 -170 -11 -172 -13 -8 -10 64 -1050 101 -1453 19 -208
24 -311 20 -400 -3 -66 -9 -178 -12 -250 -4 -81 -2 -144 4 -168 7 -25 8 -58 2
-95 -33 -204 -137 -1098 -169 -1457 -157 -1737 -221 -3213 -221 -5055 0 -2467
101 -4930 310 -7560 210 -2636 530 -5319 796 -6660 49 -250 76 -323 143 -383
l39 -35 -35 -98 c-91 -260 -202 -669 -288 -1059 -39 -175 -46 -223 -43 -285 6
-97 39 -172 108 -240 93 -94 137 -105 560 -140 461 -37 595 -44 920 -44 l325
-1 66 32 c118 58 196 171 206 297 8 99 -44 400 -113 644 -95 340 -257 689
-433 932 l-47 65 24 47 c35 69 39 161 51 1208 6 498 13 1128 16 1400 27 2392
67 4128 135 5835 34 834 89 1950 110 2200 5 66 21 296 35 510 41 625 97 1350
150 1915 27 285 105 1034 109 1037 1 1 10 -93 19 -210 233 -2800 803 -6325
1578 -9762 255 -1131 580 -2440 854 -3440 154 -562 164 -592 223 -677 70 -100
122 -128 242 -128 73 0 81 -2 76 -17 -2 -10 -9 -63 -15 -118 -6 -55 -22 -194
-36 -310 -47 -403 -67 -628 -61 -699 17 -193 137 -382 301 -477 27 -16 86 -41
130 -55 76 -25 100 -27 535 -44 1617 -67 3121 -105 3854 -98 438 4 442 4 490
27 94 46 135 144 102 246 -21 66 -82 151 -144 197 -26 20 -184 99 -352 176
-168 76 -352 162 -410 190 -58 28 -611 283 -1230 567 -619 285 -1237 569
-1375 632 -137 64 -268 123 -290 133 -37 16 -45 27 -84 111 -49 105 -87 263
-196 809 -391 1974 -725 4822 -965 8230 -16 234 -34 486 -40 560 -43 547 -195
3262 -225 4000 -3 80 -14 354 -25 610 -54 1288 -101 2693 -130 3865 -6 237
-15 599 -20 805 -19 755 -33 2176 -22 2222 6 23 20 117 32 206 25 198 106 583
284 1349 37 155 66 287 66 293 0 7 -118 10 -367 11 -203 1 -582 4 -844 8
l-476 6 -48 30 c-61 38 -95 98 -95 167 0 33 64 271 200 749 111 386 199 703
198 705 -2 1 -93 -50 -203 -115z"/>
<path d="M33956 24820 c-31 -10 -63 -35 -78 -64 -6 -10 -12 -105 -14 -210 -2
-105 -11 -423 -20 -706 -9 -283 -17 -586 -17 -673 l-2 -158 37 -35 c32 -28 45
-34 83 -34 55 0 95 19 121 57 16 25 20 66 30 373 23 644 36 1185 33 1282 -4
91 -6 99 -33 127 -17 17 -46 36 -65 41 -41 11 -36 11 -75 0z"/>
<path d="M35283 24811 c-77 -36 -71 16 -121 -968 -44 -836 -45 -884 -29 -917
42 -89 188 -91 233 -4 13 26 24 182 62 914 44 836 45 885 29 918 -29 62 -107
87 -174 57z"/>
<path d="M34431 24773 c-21 -18 -22 -35 -62 -863 -22 -465 -37 -854 -35 -866
12 -47 93 -56 117 -13 9 18 88 1500 89 1677 0 71 -58 106 -109 65z"/>
<path d="M34686 24771 c-15 -17 -20 -106 -45 -867 -31 -923 -32 -886 24 -900
31 -8 73 18 79 49 4 18 57 1586 56 1670 0 57 -77 90 -114 48z"/>
<path d="M33468 24750 c-31 -19 -50 -175 -68 -545 -12 -270 -29 -817 -31
-1019 -2 -144 -1 -150 21 -168 30 -24 54 -23 83 5 l25 22 11 420 c19 700 42
1140 62 1202 10 33 0 69 -25 85 -16 11 -58 9 -78 -2z"/>
<path d="M33620 24740 c-20 -20 -20 -33 -20 -860 0 -827 0 -840 20 -860 11
-11 31 -20 45 -20 14 0 34 9 45 20 20 20 20 33 20 860 0 827 0 840 -20 860
-11 11 -31 20 -45 20 -14 0 -34 -9 -45 -20z"/>
<path d="M34962 24753 c-7 -2 -17 -13 -22 -23 -10 -18 -110 -1519 -110 -1642
0 -47 4 -59 22 -72 31 -22 52 -20 82 7 l25 22 50 805 c28 443 51 820 51 838 0
53 -48 85 -98 65z"/>
<path d="M20987 17398 c-8 -85 -32 -887 -26 -892 2 -2 243 9 534 24 292 16
709 36 928 46 l397 18 0 71 c0 38 3 114 7 168 l6 97 -204 0 c-344 1 -622 16
-738 40 -328 67 -610 213 -837 433 l-61 59 -6 -64z"/>
<path d="M34175 13093 c-16 -8 -40 -25 -52 -36 -47 -42 -51 -79 -57 -462 -4
-198 -15 -634 -26 -970 -37 -1137 -36 -1054 -11 -1102 32 -64 90 -98 165 -98
74 0 118 23 160 83 l30 42 12 362 c25 719 44 1349 51 1694 l6 351 -23 48 c-32
67 -94 105 -169 105 -31 -1 -69 -8 -86 -17z"/>
<path d="M36068 13081 c-89 -57 -78 37 -148 -1301 -33 -652 -61 -1219 -62
-1260 -2 -93 24 -149 88 -186 48 -28 138 -33 182 -10 31 16 74 61 91 94 14 27
146 2497 136 2548 -23 123 -177 185 -287 115z"/>
<path d="M34875 13036 c-13 -13 -26 -35 -29 -48 -4 -22 -105 -2193 -109 -2346
-2 -69 0 -75 26 -98 38 -33 99 -33 131 0 20 19 25 37 30 107 8 100 93 1926
103 2181 l6 176 -28 26 c-38 35 -96 36 -130 2z"/>
<path d="M35243 13036 l-27 -24 -38 -1128 c-46 -1396 -45 -1308 -13 -1339 36
-37 97 -35 136 4 25 26 29 37 29 88 0 32 16 533 35 1113 19 580 35 1101 35
1158 0 96 -2 105 -25 127 -33 34 -93 34 -132 1z"/>
<path d="M33502 12997 c-66 -70 -95 -515 -138 -2153 -7 -260 -5 -281 35 -311
9 -7 35 -13 58 -13 34 0 46 5 67 31 23 27 26 40 26 102 0 195 42 1435 60 1767
14 250 30 439 41 468 15 39 10 69 -17 101 -34 40 -98 44 -132 8z"/>
<path d="M33741 13007 c-53 -31 -50 25 -51 -1244 l0 -1181 26 -31 c21 -26 33
-31 67 -31 45 1 67 13 85 47 9 16 12 325 12 1207 l0 1185 -22 26 c-28 31 -83
41 -117 22z"/>
<path d="M35619 12992 l-31 -27 -74 -1179 c-42 -649 -73 -1190 -69 -1203 9
-39 44 -63 91 -63 35 0 47 5 68 31 14 17 26 39 26 49 0 11 31 513 70 1117 38
604 71 1131 72 1171 3 72 2 74 -30 103 -42 38 -82 38 -123 1z"/>
<path d="M24110 9673 c-65 -34 -66 -38 -74 -480 -4 -219 -13 -598 -20 -843
-11 -361 -12 -451 -1 -476 38 -91 155 -100 200 -15 18 35 22 121 40 800 19
704 19 923 1 959 -33 63 -88 84 -146 55z"/>
<path d="M25271 9673 c-70 -36 -65 2 -108 -958 -22 -478 -36 -885 -32 -904 4
-18 20 -46 35 -62 23 -24 36 -29 75 -29 41 0 51 4 77 34 23 26 32 48 36 88 12
113 78 1727 72 1752 -9 38 -56 85 -91 91 -19 4 -43 -1 -64 -12z"/>
<path d="M24526 9628 c-11 -18 -20 -189 -45 -813 -17 -434 -33 -816 -36 -847
-4 -50 -1 -61 18 -84 19 -22 29 -26 51 -20 15 3 31 17 36 29 5 12 23 357 40
767 40 1008 39 958 16 976 -29 21 -64 17 -80 -8z"/>
<path d="M24757 9635 c-21 -20 -24 -72 -47 -952 -15 -548 -18 -778 -11 -792
27 -49 96 -28 105 31 3 18 15 406 27 861 21 793 21 829 4 847 -21 24 -58 26
-78 5z"/>
<path d="M23690 9601 c-32 -60 -49 -390 -76 -1442 -6 -252 -6 -257 15 -278 27
-27 53 -27 77 0 16 17 19 39 21 118 21 868 36 1299 54 1473 13 127 6 148 -46
148 -24 0 -38 -6 -45 -19z"/>
<path d="M23830 9600 c-20 -20 -20 -33 -20 -860 0 -827 0 -840 20 -860 27 -27
55 -25 79 7 21 26 21 27 19 865 -3 818 -4 840 -22 854 -27 19 -52 18 -76 -6z"/>
<path d="M24976 9598 c-11 -18 -23 -202 -55 -793 -23 -423 -44 -798 -47 -831
-5 -55 -3 -64 19 -89 28 -33 66 -30 85 7 7 14 27 322 52 788 22 421 43 795 46
832 5 58 3 69 -15 87 -28 28 -67 27 -85 -1z"/>
</g>
</svg>
